<?xml version="1.0" encoding="utf-8"?>
<!-- Generator: Adobe Illustrator 15.0.0, SVG Export Plug-In . SVG Version: 6.00 Build 0)  -->
<!DOCTYPE svg PUBLIC "-//W3C//DTD SVG 1.1//EN" "http://www.w3.org/Graphics/SVG/1.1/DTD/svg11.dtd">
<svg version="1.1" id="Ebene_1" xmlns="http://www.w3.org/2000/svg" xmlns:xlink="http://www.w3.org/1999/xlink" x="0px" y="0px"
	 width="800px" height="600px" viewBox="0 0 800 600" enable-background="new 0 0 800 600" xml:space="preserve">
<g id="XMLID_2_">
	<g>
		<path fill="#FFFFFF" d="M385.76,403c0,0.25,0,0.5,0,0.75c3.13,2.1,5.08-3.391,5.25-6.75c-4.43-0.931-2.24,4.76-5.25,5.25
			C385.76,402.5,385.76,402.75,385.76,403z M325.4,389.13c1.87-1.87,2.41-5.08,4.1-7.13c-1.25-1.49,0.07-0.96,0-3
			c1.05,0.83,2.04,1.3,3,1.489v0.011c7.98,4.02,16,8,26.25,9.75c0.01,0.75-0.6,0.89-0.75,1.5c2.77,1.83-1.01,5.93-2.25,8.25
			c0,0.25,0,0.5,0,0.75c0.17,0.58,0.63,0.87,1.5,0.75c2.32-1.681,3.85-4.15,3.75-8.25c0.66-1.07,1.2-1.61,1.65-1.79
			c0.01-0.01,0.01,0,0.01,0c0.21-0.01,0.42-0.021,0.63-0.01v-0.011c8.21-0.06,17.72,3.8,25.47,4.061c3.25,0,6.5,0,9.75,0
			c0.25,0,0.5,0,0.75,0c0.13,0,0.25,0,0.38,0c0.5-0.08,0.99-0.17,1.49-0.271c-0.87,1.84-1.11,4.32-2.62,5.521
			c0.03,1.029-0.35,1.649-0.75,2.25c3.79,1.77,5.06-4.12,5.77-8.32c26.82-6.81,56.53-38.32,43.44-67.18
			c-0.04,0.08-0.07,0.149-0.11,0.229c-0.311-2.99-1.36-5.92-3.351-8.74c-0.93-2.909-2.25-5.819-4.5-9
			c-4.3-5.699-5.989-14.01-12-18.01c-0.279-0.74-0.609-1.41-1-2.04c5.91,6.46,20.061,6.63,31.011,7.3c9.149,0.55,19.89,1,27.87-1.3
			c2.52-0.18,7.25-0.84,8.13-0.96c9.89-3.61,17.5-9.5,22.5-18c3.26-20.51-11.931-28.48-27-28.5c-10.46-0.01-19.511,6.12-24.75,9.75
			c-0.08,0.05,0.229,0.05-3.07,0.93c-0.92,0.48-0.67,0.61-2.03,1.22c-8.97,9.67-24.3,17.64-34.109,27.58
			c-1.88-2.21-4.19-3.99-5.801-6.48c8.98-3.34,14-10.53,21-20.25c12.04-16.7,28.61-40.48,12.761-63.01
			c-27.09-15.59-45.561,10.87-44.261,39.76c1.11,11.02,2.91,30.59,8.25,42c-4.26-1.25-10.06-8.6-12.329-8
			c-3.181-3.56-7.49-4.79-12.42-7c-6.82-3.42-15.42-8.58-24.76-11.25c-0.3-0.16-0.54-0.22-0.73-0.21c-0.1-0.05-0.23-0.08-0.4-0.11
			c-11.07-4.36-27.21-1.81-38.62-0.43c2-10,1.71-22.29,9.75-26.25c5.78,0.38,7.93,13.64,0.75,14.25c-4.03-1.68,1.91-6.38-1.5-6.75
			c-2.67,1.54-1.4,7.14,0.75,8.25c11.61-1.41,7.42-19.64-2.25-17.26c-8.27,2.05-6.92,20.48-10.5,29.26
			c-4.04,0.96-7.01,2.99-10.5,4.5c-4.63-11.88-6.81-26.2-19.51-30c-9.78,1.62-6.34,20.26,1.5,18c4.62-1.33,3.51-12.23-1.5-8.25
			c-0.35,4.21,4.59-0.76,3.75,4.5c-1.12,0.87-1.83,2.16-3.75,2.25c-7.89-3.14-4.25-14.65,0.75-15
			c10.12-0.72,13.47,22.09,17.26,29.25c-8.01,1.99-16.03,11.3-17.26,12.75c-3.9,5.52-9.63,15.61-11.25,25.51
			c-2.87,17.56,8.09,43.86,14.25,50.25c0.97,5.801,4.98,9.73,7.5,13.5c2.3,2.461,5.02,4.61,6.72,5.94h0.01
			c0.24,0.021,1.53,0.82,1.53,0.82c1.81,1.229,3.93,3.06,6,4.5c-2.86,1.14-1.82,6.18-4.5,7.5c0.08,0.91,0.22,1.77,1.5,1.5
			c1.78,0.18,4.2-6.58,4.5-8.25c0.03,0.02,0.05,0.04,0.08,0.06c2.15,1.8,5.27,2.63,6.67,5.19c-2.59,1.91-2.42,6.58-4.5,9
			c0.01,0.649,0.56,0.739,1,0.95c0.23,0.119,0.43,0.27,0.5,0.55C325.14,389.38,325.27,389.26,325.4,389.13z M531.431,193.43
			c0,76.76,0,153.521,0,230.28c-86.271,0-172.53,0-258.791,0c0-76.76,0-153.52,0-230.28C358.9,193.43,445.16,193.43,531.431,193.43z
			 M348.25,397c1.4-1.66,3.12-7.86,0.75-8.25c-1.31,1.68-1.78,4.22-3,6c1.9,1.229-2.43,2.51-1.5,5.25c0.75,0,1.5,0,2.25,0
			C345.82,397.569,349.18,399.43,348.25,397z"/>
		<path fill="#9DC4DB" d="M457.021,297.24c-10.95-0.67-25.101-0.84-31.011-7.3c-0.43-0.71-0.92-1.36-1.439-1.97
			c0,0,0-0.01-0.01-0.01c9.81-9.94,25.14-17.91,34.109-27.58c1.36-0.61,1.11-0.74,2.03-1.22c3.3-0.88,2.99-0.88,3.07-0.93
			c5.239-3.63,14.29-9.76,24.75-9.75c15.069,0.02,30.26,7.99,27,28.5c-5,8.5-12.61,14.39-22.5,18c-0.88,0.12-5.61,0.78-8.13,0.96
			c1.58-0.46,3.05-1.02,4.38-1.71c-7.21,1.62-6.83,1.89-4.38,1.71C476.91,298.24,466.17,297.79,457.021,297.24z"/>
		<path fill="#9DC4DB" d="M489.271,294.229c-1.33,0.69-2.8,1.25-4.38,1.71C482.44,296.12,482.061,295.85,489.271,294.229z"/>
		<path fill="#9DC4DB" d="M452.521,198.22c15.85,22.53-0.721,46.31-12.761,63.01c-7,9.72-12.02,16.91-21,20.25
			c-0.89-0.36-1.699-0.8-2.25-1.5c-5.34-11.41-7.14-30.98-8.25-42C406.96,209.09,425.431,182.63,452.521,198.22z"/>
		<path fill="#F4D207" d="M418.01,375.25c0.36-0.261,0.761-0.59,1.181-0.98l0.01-0.01c0.13-0.03,0.39-0.29,0.72-0.68
			c1.48-1.45,2.96-3.301,3.29-4.45c0.45-0.69,0.761-1.22,0.8-1.38c0.261-0.29,0.521-0.601,0.801-0.91c8-8.98,23.6-24.64,22.05-39.11
			c0.04-0.08,0.07-0.149,0.11-0.229c13.09,28.859-16.62,60.37-43.44,67.18c-0.8,0.21-1.59,0.39-2.39,0.54l-0.011,0.01
			c-0.5,0.101-0.99,0.19-1.49,0.271c0.28-0.49,0.59-1.011,0.93-1.53c0-0.01,0.01-0.01,0.01-0.02
			C404.67,387.67,412.91,379.399,418.01,375.25z"/>
		<path fill="#F4D207" d="M446.86,327.729c1.55,14.471-14.05,30.13-22.05,39.11C432.5,357.87,440.7,341.1,446.86,327.729z"/>
		<path fill="#0F0A07" d="M423.21,369.13c-0.91,1.37-2.37,3.399-3.29,4.45c-0.239,0.25-0.479,0.47-0.72,0.68l-0.01,0.01
			c-0.42,0.391-0.82,0.72-1.181,0.98c-5.1,4.149-13.34,12.42-17.43,18.7c0,0.01-0.01,0.01-0.01,0.02c-0.34,0.52-0.65,1.04-0.93,1.53
			c-0.13,0-0.25,0-0.38,0c-0.25,0-0.5,0-0.75,0c-3.25,0-6.5,0-9.75,0c-7.75-0.261-17.26-4.12-25.47-4.061
			c-0.19-0.06-0.39-0.069-0.63,0.021c0,0,0-0.01-0.01,0c-0.45,0.18-0.99,0.72-1.65,1.79c0.1,4.1-1.43,6.569-3.75,8.25
			c-0.87,0.12-1.33-0.17-1.5-0.75c0-0.25,0-0.5,0-0.75c1.24-2.32,5.02-6.42,2.25-8.25c0.15-0.61,0.76-0.75,0.75-1.5
			c29.87-25.641,51.05-59.971,68.26-98.271c6.011,4,7.7,12.311,12,18.01c2.25,3.181,3.57,6.091,4.5,9
			c1.99,2.82,3.04,5.75,3.351,8.74c-6.16,13.37-14.36,30.141-22.05,39.11c-0.28,0.31-0.54,0.62-0.801,0.91
			C423.971,367.91,423.66,368.439,423.21,369.13z"/>
		<path fill="#F4D207" d="M426.01,289.94c0.391,0.63,0.721,1.3,1,2.04c-17.21,38.3-38.39,72.63-68.26,98.271
			c-10.25-1.75-18.27-5.73-26.25-9.75v-0.011c7.49,1.461,12.52-15,17.69-22.09c0.1-0.14,0.21-0.279,0.31-0.41
			c3.75-3.739,6.44-7.8,9.75-12c8.48-9.02,16.41-18.6,22.51-30c5.33-5.92,8.3-14.199,12-21.76c0.01-0.02,0.02-0.03,0.03-0.05
			c0.03-0.04,0.05-0.1,0.09-0.18c0-0.01,0.01-0.03,0.02-0.04c2.45-4.91,4.9-9.82,7.359-14.73c1.211-2.26,2.211-3.95,1.931-7.24
			l-0.01-0.01c2.27-0.6,8.069,6.75,12.329,8c0.551,0.7,1.36,1.14,2.25,1.5c1.61,2.49,3.921,4.27,5.801,6.48
			c0.01,0,0.01,0.01,0.01,0.01C424.96,288.68,425.44,289.34,426.01,289.94z"/>
		<path fill="#F4D207" d="M426.01,289.94c-0.569-0.6-1.05-1.26-1.439-1.97C425.09,288.58,425.58,289.229,426.01,289.94z"/>
		<path fill="#F4D207" d="M419.92,373.58c0.92-1.051,2.38-3.08,3.29-4.45C422.88,370.279,421.4,372.13,419.92,373.58z"/>
		<path fill="#0F0A07" d="M419.92,373.58c-0.33,0.39-0.59,0.649-0.72,0.68C419.44,374.05,419.681,373.83,419.92,373.58z"/>
		<path fill="#0F0A07" d="M404.19,271.99c0.28,3.29-0.72,4.98-1.931,7.24c-2.459,4.91-4.91,9.82-7.359,14.73
			c1-2.62,5.55-22.38,9.01-21.86c0.08-0.06,0.17-0.1,0.271-0.12L404.19,271.99z"/>
		<path fill="#0F0A07" d="M321.33,373.81c-0.03-0.02-0.05-0.04-0.08-0.06c-0.3,1.67-2.72,8.43-4.5,8.25
			c-1.28,0.27-1.42-0.59-1.5-1.5c2.68-1.32,1.64-6.36,4.5-7.5c-2.07-1.44-4.19-3.271-6-4.5c0,0-1.29-0.8-1.53-0.82h-0.01
			c-1.7-1.33-4.42-3.479-6.72-5.94c-2.52-3.77-6.53-7.699-7.5-13.5c29.82-23.689,51.96-55.06,67.51-93.01c0-0.48,0-1.66,0.77-1.71
			c0.19-0.01,0.43,0.05,0.73,0.21c9.34,2.67,17.94,7.83,24.76,11.25c4.93,2.21,9.24,3.44,12.42,7c-0.101,0.02-0.19,0.06-0.271,0.12
			c-3.46-0.52-8.01,19.24-9.01,21.86c-0.01,0.01-0.02,0.03-0.02,0.04c-0.03,0.06-0.06,0.12-0.09,0.18
			c-0.01,0.02-0.02,0.03-0.03,0.05c-3.7,7.561-6.67,15.84-12,21.76c-6.1,11.4-14.03,20.98-22.51,30c-3.31,4.2-6,8.261-9.75,12
			c-0.1,0.131-0.21,0.271-0.31,0.41c-5.92,8-12.71,13.801-17.69,22.09c-0.96-0.189-1.95-0.659-3-1.489c0.07,2.04-1.25,1.51,0,3
			c-1.69,2.05-2.23,5.26-4.1,7.13c-0.27-0.01-0.59-0.07-0.9-0.18c-0.44-0.211-0.99-0.301-1-0.95c2.08-2.42,1.91-7.09,4.5-9
			C326.6,376.439,323.48,375.609,321.33,373.81z"/>
		<path fill="#0F0A07" d="M401.141,395.22c0.8-0.15,1.59-0.33,2.39-0.54c-0.71,4.2-1.98,10.09-5.77,8.32
			c0.4-0.601,0.78-1.221,0.75-2.25c1.51-1.2,1.75-3.681,2.62-5.521L401.141,395.22z"/>
		<path fill="#FFFFFF" d="M394.79,294.18c0.03-0.06,0.06-0.12,0.09-0.18C394.84,294.08,394.82,294.14,394.79,294.18z"/>
		<path fill="#0F0A07" d="M385.76,402.25c3.01-0.49,0.82-6.181,5.25-5.25c-0.17,3.359-2.12,8.85-5.25,6.75c0-0.25,0-0.5,0-0.75
			S385.76,402.5,385.76,402.25z"/>
		<path fill="#F4D207" d="M365.87,253.41c0.17,0.03,0.3,0.06,0.4,0.11c-0.77,0.05-0.77,1.23-0.77,1.71
			c-15.55,37.95-37.69,69.32-67.51,93.01c-6.16-6.39-17.12-32.689-14.25-50.25c1.62-9.9,7.35-19.99,11.25-25.51
			c1.23-1.45,9.25-10.76,17.26-12.75c-3.79-7.16-7.14-29.97-17.26-29.25c-5,0.35-8.64,11.86-0.75,15c1.92-0.09,2.63-1.38,3.75-2.25
			c0.84-5.26-4.1-0.29-3.75-4.5c5.01-3.98,6.12,6.92,1.5,8.25c-7.84,2.26-11.28-16.38-1.5-18c12.7,3.8,14.88,18.12,19.51,30
			c3.49-1.51,6.46-3.54,10.5-4.5c3.58-8.78,2.23-27.21,10.5-29.26c9.67-2.38,13.86,15.85,2.25,17.26c-2.15-1.11-3.42-6.71-0.75-8.25
			c3.41,0.37-2.53,5.07,1.5,6.75c7.18-0.61,5.03-13.87-0.75-14.25c-8.04,3.96-7.75,16.25-9.75,26.25
			C338.66,251.6,354.8,249.05,365.87,253.41z M340,282.979c3.63,0.18,3.74-4.71-0.75-3.75C339.01,280.97,339.37,282.11,340,282.979z
			 M306.25,303.989c-2.07,10.58,17.8,10.061,15-0.75c-2.45,1.051-2.11,4.891-4.5,6C310.16,310.58,308.92,306.56,306.25,303.989z
			 M297.24,282.979c1.91-0.09,2.91-1.09,3-3c-1.76-1.1-1.39-1.58-3.75-0.75C296.25,280.97,296.61,282.11,297.24,282.979z"/>
		<path fill="#FFFFFF" d="M363.29,391.439v0.011c-0.21-0.011-0.42,0-0.63,0.01C362.9,391.37,363.1,391.38,363.29,391.439z"/>
		<path fill="#0F0A07" d="M349,388.75c2.37,0.39,0.65,6.59-0.75,8.25c0.93,2.43-2.43,0.569-1.5,3c-0.75,0-1.5,0-2.25,0
			c-0.93-2.74,3.4-4.021,1.5-5.25C347.22,392.97,347.69,390.43,349,388.75z"/>
		<path fill="#F4D207" d="M332.5,380.489c4.98-8.289,11.77-14.09,17.69-22.09C345.02,365.489,339.99,381.95,332.5,380.489z"/>
		<path fill="#0F0A07" d="M339.25,279.229c4.49-0.96,4.38,3.93,0.75,3.75C339.37,282.11,339.01,280.97,339.25,279.229z"/>
		<path fill="#0F0A07" d="M325.4,389.13c-0.13,0.13-0.26,0.25-0.4,0.37c-0.07-0.28-0.27-0.431-0.5-0.55
			C324.81,389.06,325.13,389.12,325.4,389.13z"/>
		<path fill="#0F0A07" d="M321.25,303.239c2.8,10.811-17.07,11.33-15,0.75c2.67,2.57,3.91,6.591,10.5,5.25
			C319.14,308.13,318.8,304.29,321.25,303.239z"/>
		<path fill="#0F0A07" d="M300.24,279.979c-0.09,1.91-1.09,2.91-3,3c-0.63-0.87-0.99-2.01-0.75-3.75
			C298.85,278.4,298.48,278.88,300.24,279.979z"/>
	</g>
	<g>
	</g>
</g>
</svg>
